<?xml version="1.0" encoding="UTF-8" standalone="no"?>
<!DOCTYPE svg PUBLIC "-//W3C//DTD SVG 1.1//EN" "http://www.w3.org/Graphics/SVG/1.1/DTD/svg11.dtd">
<svg width="100%" height="100%" viewBox="0 0 400 400" version="1.1" xmlns="http://www.w3.org/2000/svg" xmlns:xlink="http://www.w3.org/1999/xlink" xml:space="preserve" xmlns:serif="http://www.serif.com/" style="fill-rule:evenodd;clip-rule:evenodd;stroke-linejoin:round;stroke-miterlimit:2;">
    <path d="M88.562,184.803C88.104,179.554 81.302,96.315 106.565,51.445C106.565,51.445 125.594,14.596 157.115,15.379C157.115,15.379 175.083,15.817 186.661,24.822C198.238,33.827 211.989,42.179 241.774,42.179C241.774,42.179 273.971,41.141 293.599,49.177C293.599,49.177 302.179,52.355 309.767,58.572C317.354,64.79 344.438,88.43 356.953,127.961C356.953,127.961 363.181,143.409 365.651,192.602C365.651,192.602 366.979,239.086 366.014,256.131L363.58,399.477L332.527,399.495L332.245,309.839C332.245,309.839 329.835,281.463 325.28,274.361C322.155,269.489 318.095,267.387 314.235,267.387C310.376,267.387 301.693,271.247 300.406,286.041C300.406,286.041 299.21,296.379 299.21,311.044C299.21,325.71 297.844,399.483 297.844,399.483L267.704,399.471L266.546,286.012C266.546,286.012 267.046,265.23 251.592,263.418C237.607,261.778 237.468,280.005 237.468,280.005L235.499,399.47L208.509,399.47L207.073,281.325C207.073,281.325 206.91,262.612 193.241,263.059C181.062,263.458 179.147,278.066 179.147,295.026C179.147,311.986 178.1,399.512 178.1,399.512L151.575,399.608L151.184,271.467C151.184,271.467 150.715,246.671 148.41,231.028C146.104,215.385 140.67,211.762 134.249,212.091C127.827,212.421 122.722,215.549 122.064,223.124C121.405,230.698 121.421,399.575 121.421,399.575L93.522,399.481L91.447,226.157C91.447,226.157 90.413,211.848 89.919,206.085C89.684,203.339 89.395,203.037 89.395,203.037C46.46,203.037 18.16,177.637 18.16,141.911C18.16,106.186 43.642,99.5 43.642,99.5C54.22,98.312 49.319,104.283 49.319,104.283C31.986,115.768 33.791,136.635 33.791,136.635C37.536,185.042 87.435,184.814 88.562,184.803ZM129.118,123.538C129.118,123.538 143.619,124.549 143.366,135.003C143.113,145.458 134.176,149.167 130.467,149.167C126.757,149.167 118.158,145.205 118.326,135.425C118.495,125.645 127.179,123.538 129.118,123.538Z" style="fill:white;"/>
</svg>
